<svg xmlns="http://www.w3.org/2000/svg" width="273.313" height="46.17" viewBox="0 0 273.313 46.17">
  <g id="Web_Logo" data-name="Web Logo" transform="translate(-5606 165.5)">
    <g id="Group_2314" data-name="Group 2314" transform="translate(5577 -190)">
      <path id="Path_1" data-name="Path 1" d="M285.365,173.63a20.559,20.559,0,0,0-2.059-9.148,22.459,22.459,0,0,0-2.144-3.522,21.36,21.36,0,0,0-1.678,2.779,19.728,19.728,0,0,0-2.059,9.014,20.549,20.549,0,0,0,2.059,9.148,22.406,22.406,0,0,0,2.144,3.521,21.443,21.443,0,0,0,1.679-2.778A19.734,19.734,0,0,0,285.365,173.63Z" transform="translate(-229.155 -125.606)" fill="none"/>
      <path id="Union_2" data-name="Union 2" d="M-5565.269,38.587a22.321,22.321,0,0,1-5.671-7.292,20.559,20.559,0,0,1-2.06-9.147,19.731,19.731,0,0,1,2.06-9.014,21.348,21.348,0,0,1,5.671-7.023,22.794,22.794,0,0,1,2.215-1.585,27.177,27.177,0,0,1,6.312-2.911c.144.048.29.09.434.14-.144-.05-.29-.094-.434-.14l.08-.028A35.765,35.765,0,0,1-5545.79,0h12.544a35.754,35.754,0,0,0-10.871,1.587,27.306,27.306,0,0,0-6.395,2.939,23.013,23.013,0,0,0-2.214,1.585,21.571,21.571,0,0,0-3.993,4.243,21.32,21.32,0,0,0-1.678,2.779,19.73,19.73,0,0,0-2.059,9.014,20.559,20.559,0,0,0,2.059,9.147,22.332,22.332,0,0,0,2.144,3.52,21.607,21.607,0,0,1-3.993,4.245,23.083,23.083,0,0,1-2.215,1.583A24.391,24.391,0,0,1-5565.269,38.587Z" transform="translate(5608.724 25)" fill="#d80021" stroke="rgba(0,0,0,0)" stroke-miterlimit="10" stroke-width="1"/>
      <path id="Path_4" data-name="Path 4" d="M291.891,219.4a27.316,27.316,0,0,1-6.313,2.912,32.778,32.778,0,0,0,10.439,1.615h12.544a32.575,32.575,0,0,1-10.87-1.756A28.627,28.627,0,0,1,291.891,219.4Z" transform="translate(-233.083 -153.753)" fill="#d80021"/>
      <path id="Path_5" data-name="Path 5" d="M252.794,140.985H240.25a32.574,32.574,0,0,1,10.87,1.756,28.652,28.652,0,0,1,5.8,2.77,27.247,27.247,0,0,1,6.313-2.91A32.735,32.735,0,0,0,252.794,140.985Z" transform="translate(-211.25 -115.985)" fill="#827af3"/>
      <path id="Union_1" data-name="Union 1" d="M-5573,40.644a35.758,35.758,0,0,0,10.87-1.587,27.354,27.354,0,0,0,6.395-2.939,23.259,23.259,0,0,0,2.214-1.585,21.624,21.624,0,0,0,3.993-4.243A22.61,22.61,0,0,0-5546,34.061a24.359,24.359,0,0,0,2.809,2.057,27.314,27.314,0,0,1-6.312,2.912c-.028.007-.053.018-.081.027a35.751,35.751,0,0,1-10.87,1.587Zm27-6.583a22.61,22.61,0,0,1-3.527-3.771,21.437,21.437,0,0,0,1.678-2.778,19.739,19.739,0,0,0,2.059-9.014,20.56,20.56,0,0,0-2.059-9.148,22.372,22.372,0,0,0-2.144-3.522A21.609,21.609,0,0,1-5546,1.585,23.328,23.328,0,0,1-5543.787,0a24.338,24.338,0,0,1,2.81,2.059,22.31,22.31,0,0,1,5.671,7.291,20.561,20.561,0,0,1,2.061,9.148,19.739,19.739,0,0,1-2.061,9.014,21.351,21.351,0,0,1-5.671,7.021,23.1,23.1,0,0,1-2.215,1.585A24.359,24.359,0,0,1-5546,34.061Z" transform="translate(5602 29.526)" fill="#827af3" stroke="rgba(0,0,0,0)" stroke-miterlimit="10" stroke-width="1"/>
    </g>
    <g id="Group_2312" data-name="Group 2312" transform="translate(5577 -191)">
      <g id="Group_3" data-name="Group 3" transform="translate(85 36.123)">
        <g id="Group_2" data-name="Group 2">
          <path id="Path_10" data-name="Path 10" d="M159.861,265.639l4.3-5.924h7.94q1.119,0,1.946.07-.481-.621-1.119-1.568t-1.223-1.775l-4.134-6.1L156.76,265.639h-8.44L163.1,244.8a7.951,7.951,0,0,1,1.827-1.792,5.312,5.312,0,0,1,5.493-.052,7.016,7.016,0,0,1,1.843,1.844l14.4,20.838Z" transform="translate(-148.32 -242.218)" fill="#d80021"/>
        </g>
      </g>
      <g id="Group_5" data-name="Group 5" transform="translate(124.441 36.501)">
        <g id="Group_4" data-name="Group 4">
          <path id="Path_11" data-name="Path 11" d="M228.446,251.34a7.946,7.946,0,0,1-.757,3.5,7.286,7.286,0,0,1-2.222,2.669,11.1,11.1,0,0,1-3.566,1.722,16.962,16.962,0,0,1-4.788.619H205.059v5.89h-7.1V253.958H217.8a4.044,4.044,0,0,0,2.566-.725,2.337,2.337,0,0,0,.912-1.929,2.3,2.3,0,0,0-.912-1.912,4.118,4.118,0,0,0-2.566-.706H197.963l4.718-5.993h14.467a16.506,16.506,0,0,1,4.789.638,10.718,10.718,0,0,1,3.547,1.773,7.641,7.641,0,0,1,2.2,2.72A8.054,8.054,0,0,1,228.446,251.34Z" transform="translate(-197.963 -242.694)" fill="#d80021"/>
        </g>
      </g>
      <g id="Group_7" data-name="Group 7" transform="translate(157.266 36.501)">
        <g id="Group_6" data-name="Group 6">
          <path id="Path_12" data-name="Path 12" d="M246.409,265.737h-7.13V242.694h7.13Z" transform="translate(-239.279 -242.694)" fill="#d80021"/>
        </g>
      </g>
      <g id="Group_9" data-name="Group 9" transform="translate(165.808 45.664)">
        <g id="Group_8" data-name="Group 8">
          <path id="Path_13" data-name="Path 13" d="M265.015,254.228l-3.479,4.442h-11.5l3.479-4.442Z" transform="translate(-250.031 -254.228)" fill="#d80021"/>
        </g>
      </g>
    </g>
    <g id="Group_2313" data-name="Group 2313" transform="translate(5577 -191)">
      <path id="Path_14" data-name="Path 14" d="M299.808,253.992a10.51,10.51,0,0,1-1.051,4.668,11.412,11.412,0,0,1-2.893,3.72,13.717,13.717,0,0,1-4.392,2.462,16.616,16.616,0,0,1-5.546.9H270.494V251.374h7.165v8.438h8.267a9.089,9.089,0,0,0,2.739-.4,6.511,6.511,0,0,0,2.152-1.119,5.311,5.311,0,0,0,1.413-1.74,5.149,5.149,0,0,0,0-4.5,5.251,5.251,0,0,0-1.447-1.773,7.276,7.276,0,0,0-2.17-1.172,8.138,8.138,0,0,0-2.686-.431H270.494l4.547-5.993h10.885a17.968,17.968,0,0,1,5.58.827,13.464,13.464,0,0,1,4.392,2.325,10.692,10.692,0,0,1,2.877,3.583A10.126,10.126,0,0,1,299.808,253.992Z" transform="translate(-88.429 -206.193)" fill="#827af3"/>
      <path id="Path_15" data-name="Path 15" d="M336.972,259.813l-4.581,5.924H310.207V242.694h26.7l-4.617,5.993H317.372v2.756h18.256l-4.1,5.236H317.372v3.134Z" transform="translate(-96.59 -206.193)" fill="#827af3"/>
      <path id="Path_16" data-name="Path 16" d="M366.247,251.891q4.237,0,6.442,1.568a5.427,5.427,0,0,1,2.2,4.736,8.642,8.642,0,0,1-.552,3.168,5.6,5.6,0,0,1-1.757,2.378,8.5,8.5,0,0,1-3.082,1.48,17.132,17.132,0,0,1-4.5.516H343.547l4.582-5.924h17.429a3.4,3.4,0,0,0,1.861-.4,1.445,1.445,0,0,0,.585-1.291,1.4,1.4,0,0,0-.585-1.275,3.533,3.533,0,0,0-1.861-.379H353.02a13.568,13.568,0,0,1-3.858-.482,7.766,7.766,0,0,1-2.688-1.343,5.292,5.292,0,0,1-1.584-2.084,6.894,6.894,0,0,1-.516-2.7,7.376,7.376,0,0,1,.57-2.945,5.672,5.672,0,0,1,1.757-2.256,8.642,8.642,0,0,1,3.064-1.446,17.087,17.087,0,0,1,4.5-.517h20.013l-4.581,5.993H353.709a3.846,3.846,0,0,0-1.843.345,1.3,1.3,0,0,0-.6,1.239,1.347,1.347,0,0,0,.6,1.258,3.677,3.677,0,0,0,1.843.361Z" transform="translate(-103.442 -206.193)" fill="#827af3"/>
      <path id="Path_17" data-name="Path 17" d="M414.328,265.737H403.546l-6.957-6.063q-1.792-1.549-2.739-2.41t-1.533-1.448q.034.794.069,1.637c.022.562.034,1.119.034,1.67v6.613h-7.164V242.694h7.164v5.34q0,1.067-.034,2.1t-.1,1.928q.689-.621,1.671-1.533t2.565-2.222l6.649-5.615H413.5l-8.819,6.614q-1.136.86-2.014,1.516t-1.568,1.135c-.459.323-.878.609-1.257.861s-.752.494-1.12.724q1,.689,2.411,1.722t3.651,2.859Z" transform="translate(-112.014 -206.193)" fill="#827af3"/>
    </g>
  </g>
</svg>
