<?xml version="1.0" encoding="UTF-8"?><!DOCTYPE svg PUBLIC "-//W3C//DTD SVG 1.1//EN" "http://www.w3.org/Graphics/SVG/1.1/DTD/svg11.dtd"><svg xmlns="http://www.w3.org/2000/svg" xmlns:xlink="http://www.w3.org/1999/xlink" version="1.1" id="Layer_1" x="0px" y="0px" width="64px" height="64px" viewBox="0 0 64 64" xml:space="preserve"><path fill="#494949" d="M8 35h10v17H8z"/><path d="M18 35v17H8"/><circle fill="#494949" cx="13" cy="27.2" r="5.6"/><path d="M16.9 23.2c2.2 2.2 2.2 5.8 0 8s-5.8 2.2-8 0"/><path d="M37 5H1v54h36c7-.1 13.8-2 18.2-5.8 5.3-4.5 7.9-11.7 7.9-21.3 0-4.6-.8-8.7-2.2-12.2-1.3-3.4-3.2-6.2-5.7-8.5C50.7 7.3 44 5.1 37 5zm-1 4c6.9 0 12.7 1.7 16.7 5.2 4.5 4 6.8 9.7 6.8 17.7C59.4 47.7 51.7 55 36 55H5V9h31z"/><path fill="#CC1B69" d="M42.3 28h1.8c-.2 0-.6-1.7-.9-2.5-.3.8-.8 2.5-.9 2.5z"/><path fill="#CC1B69" d="M24.6 30.7c.3-.1.5-.3.7-.4.2-.2.3-.5.4-.8.1-.4.2-1 .2-1.7s-.1-1.2-.2-1.6c-.1-.3-.3-.6-.5-.8-.2-.2-.5-.2-.8-.3h-1.5-1v6h1.5c.6-.1 1-.4 1.2-.4z"/><path fill="#F42588" d="M49 33V23h3v7h4.1c-.9-14-11.6-17-21.6-17H22v10h1.7c.8 0 1.4-.1 1.9.1.6.2 1.1.4 1.5.9.4.4.7.9 1 1.6.2.6.3 1.4.3 2.3 0 .8-.1 1.5-.3 2.1-.2.7-.6 1.3-1.1 1.8-.4.3-.8.8-1.4 1-.4.1-1 .4-1.8.4H22v19h12.5c10.5 0 21.6-3 21.7-19H49zm-11 0h-8V23h7v2h-5v1h5v3h-5v2h6v2zm7.7 0s-.7-2-.8-2h-3.4c-.1 0-.8 2-.8 2h-2.6L42 23h2.4l4 10h-2.7z"/><path fill="#CC1B69" d="M22 23h1.7c.8 0 1.4-.1 1.9.1.6.2 1.1.4 1.5.9.4.4.7.9 1 1.6.2.6.3 1.4.3 2.3 0 .8-.1 1.5-.3 2.1-.2.7-.6 1.3-1.1 1.8-.4.3-.8.8-1.4 1-.4.1-1 .4-1.8.4H22v19h12.5c10.5 0 21.6-3 21.7-19H49V23h3v7h4.1c-.9-14-11.8-16.7-21.8-16.7M37 33h-7V23h7v2h-5v2h5v2h-5v2h5v2zm8.7 0s-.7-2-.8-2h-3.4c-.1 0-.8 2-.8 2h-2.6L42 23h2.4l4 10h-2.7z"/><g><path fill="#B50662" d="M52 23v7h4.1c-.3-4-1-6.6-2.6-9l-2.1 2h.6z"/><path fill="#B50662" d="M49 24.9L46.2 28l2.1 5h-2.6s-.7-2-.8-2h-1.2L22 51.8v.2h12.5c10.5 0 21.6-3 21.7-19H49v-8.1z"/></g><g><path fill="#494949" d="M1 5v54l4-4V9h31c4.9 0 9.1.9 12.7 2.5l2.9-2.8C47.5 6.3 42 5.1 37 5H1z"/></g><metadata><rdf:RDF xmlns:rdf="http://www.w3.org/1999/02/22-rdf-syntax-ns#" xmlns:rdfs="http://www.w3.org/2000/01/rdf-schema#" xmlns:dc="http://purl.org/dc/elements/1.1/"><rdf:Description about="https://iconscout.com/legal#licenses" dc:title="i,deal" dc:description="i,deal" dc:publisher="Iconscout" dc:date="2018-02-12" dc:format="image/svg+xml" dc:language="en"><dc:creator><rdf:Bag><rdf:li>Roundicons.com</rdf:li></rdf:Bag></dc:creator></rdf:Description></rdf:RDF></metadata></svg>