<svg xmlns="http://www.w3.org/2000/svg" width="96" height="96.539" viewBox="0 0 96 96.539">
  <g id="Group_455" data-name="Group 455" transform="translate(-962 -1460.5)">
    <circle id="Ellipse_9" data-name="Ellipse 9" cx="48" cy="48" r="48" transform="translate(962 1461)" fill="#e7e7f9"/>
    <g id="Group_407" data-name="Group 407" transform="translate(1424.463 1293.629)">
      <g id="Group_404" data-name="Group 404">
        <path id="Path_243" data-name="Path 243" d="M-400.822,244.358l-24.366-.207a4.659,4.659,0,0,1-4.62-4.7h0a4.66,4.66,0,0,1,4.7-4.621l24.366.207a4.661,4.661,0,0,1,4.621,4.7h0A4.66,4.66,0,0,1-400.822,244.358Z" fill="none" stroke="#827af3" stroke-miterlimit="10" stroke-width="3"/>
        <path id="Path_244" data-name="Path 244" d="M-400.9,253.79l-24.366-.207a4.66,4.66,0,0,1-4.621-4.7h0a4.661,4.661,0,0,1,4.7-4.621l24.366.207a4.661,4.661,0,0,1,4.621,4.7h0A4.66,4.66,0,0,1-400.9,253.79Z" fill="none" stroke="#827af3" stroke-miterlimit="10" stroke-width="3"/>
        <path id="Path_245" data-name="Path 245" d="M-435.961,213.023h0c.047.064.093.13.14.194a63.159,63.159,0,0,1,9.584,21.733h26.067a63.146,63.146,0,0,1,9.583-21.733c.048-.064.094-.13.141-.194h0c.489-.673.951-1.366,1.38-2.082a27.993,27.993,0,0,0,3.988-14.444A28.126,28.126,0,0,0-413.2,168.371,28.125,28.125,0,0,0-441.328,196.5a27.993,27.993,0,0,0,3.987,14.444C-436.912,211.657-436.45,212.35-435.961,213.023Z" fill="none" stroke="#827af3" stroke-miterlimit="10" stroke-width="3"/>
        <path id="Path_246" data-name="Path 246" d="M-423.9,253.7a11.109,11.109,0,0,0,10.725,8.212,11.109,11.109,0,0,0,10.673-8.03Z" fill="none" stroke="#827af3" stroke-miterlimit="10" stroke-width="3"/>
        <path id="Path_247" data-name="Path 247" d="M-418.116,234.831V211.359a4.185,4.185,0,0,0-4.185-4.184,4.184,4.184,0,0,0-4.184,4.184,4.184,4.184,0,0,0,4.184,4.184h9.3" fill="none" stroke="#827af3" stroke-miterlimit="10" stroke-width="3"/>
        <path id="Path_248" data-name="Path 248" d="M-407.894,234.831V211.359a4.184,4.184,0,0,1,4.184-4.184,4.184,4.184,0,0,1,4.184,4.184,4.184,4.184,0,0,1-4.184,4.184h-9.3" fill="none" stroke="#827af3" stroke-miterlimit="10" stroke-width="3"/>
      </g>
      <g id="Group_405" data-name="Group 405">
        <line id="Line_9" data-name="Line 9" x2="7.85" transform="translate(-377.706 202.162)" fill="none" stroke="#827af3" stroke-linecap="round" stroke-miterlimit="10" stroke-width="3"/>
        <line id="Line_10" data-name="Line 10" y1="3.546" x2="7.004" transform="translate(-377.405 188.625)" fill="none" stroke="#827af3" stroke-linecap="round" stroke-miterlimit="10" stroke-width="3"/>
        <line id="Line_11" data-name="Line 11" x2="7.004" y2="3.546" transform="translate(-380.135 211.444)" fill="none" stroke="#827af3" stroke-linecap="round" stroke-miterlimit="10" stroke-width="3"/>
      </g>
      <g id="Group_406" data-name="Group 406">
        <line id="Line_12" data-name="Line 12" x1="7.85" transform="translate(-458.463 202.162)" fill="none" stroke="#827af3" stroke-linecap="round" stroke-miterlimit="10" stroke-width="3"/>
        <line id="Line_13" data-name="Line 13" x1="7.004" y1="3.546" transform="translate(-457.918 188.625)" fill="none" stroke="#827af3" stroke-linecap="round" stroke-miterlimit="10" stroke-width="3"/>
        <line id="Line_14" data-name="Line 14" x1="7.004" y2="3.546" transform="translate(-455.188 211.444)" fill="none" stroke="#827af3" stroke-linecap="round" stroke-miterlimit="10" stroke-width="3"/>
      </g>
    </g>
  </g>
</svg>
