<svg xmlns="http://www.w3.org/2000/svg" width="131" height="131" style=""><rect id="backgroundrect" width="100%" height="100%" x="0" y="0" fill="none" stroke="none" class="" style=""/>
  
<g class="currentLayer" style=""><title>Layer 1</title><g id="Group_426" data-name="Group 426" class="">
    <path id="Path_301" data-name="Path 301" d="M52.183641189575155,78.39068784236909 l10.42,10.42 C106.37264118957523,64.14368784236908 107.1146411895752,23.46368784236907 107.1146411895752,23.46368784236907 s-40.68,0.7380000000000005 -65.347,44.508 z" fill="none" stroke="#827af3" stroke-linecap="round" stroke-linejoin="round" stroke-width="3"/>
    <path id="Path_302" data-name="Path 302" d="M84.65763581848148,55.75168784236908 a6.954,6.954 0 0 1 -9.835,0 a6.956,6.956 0 0 1 0,-9.835 a6.956,6.956 0 0 1 9.835,0 A6.954,6.954 0 0 1 84.65763581848148,55.75168784236908 z" fill="none" stroke="#827af3" stroke-linecap="round" stroke-linejoin="round" stroke-width="3"/>
    <path id="Path_303" data-name="Path 303" d="M60.77563581848142,86.98368784236908 l-10.022,4.386 l-5.774,-5.774 l-5.774,-5.775 l4.386,-10.022 " fill="none" stroke="#827af3" stroke-linecap="round" stroke-linejoin="round" stroke-width="3"/>
    <path id="Path_304" data-name="Path 304" d="M60.31564265441898,44.381687842369075 l0.04600000000000006,-0.18200000000000013 s-17.477,-10.742 -31.435,10.934 c0,0 13.461,-1.366 18.371,4.077 h0 A90.89,90.89 0 0 1 60.31564265441898,44.381687842369075 z" fill="none" stroke="#827af3" stroke-linecap="round" stroke-linejoin="round" stroke-width="3"/>
    <path id="Path_305" data-name="Path 305" d="M86.3746416778564,70.43968784236907 l0.18100000000000013,-0.045000000000000054 s10.743,17.477 -10.934,31.435 c0,0 1.366,-13.461 -4.077,-18.372 h0 A90.8,90.8 0 0 0 86.3746416778564,70.43968784236907 z" fill="none" stroke="#827af3" stroke-linecap="round" stroke-linejoin="round" stroke-width="3"/>
    <line id="Line_24" data-name="Line 24" x1="38.28966522216797" y2="104.11968612670898" fill="none" stroke="#827af3" stroke-linecap="round" stroke-linejoin="round" stroke-width="3" x2="26.454665660858154" y1="92.28468704223633"/>
    <line id="Line_25" data-name="Line 25" x1="43.20766639709473" y2="105.43468856811523" fill="none" stroke="#827af3" stroke-linecap="round" stroke-linejoin="round" stroke-width="3" x2="34.97466564178467" y1="97.20168685913086"/>
    <line id="Line_26" data-name="Line 26" x1="33.37266540527344" y2="95.60068893432617" fill="none" stroke="#827af3" stroke-linecap="round" stroke-linejoin="round" stroke-width="3" x2="25.139665603637695" y1="87.36769104003906"/>
  </g></g></svg>