<svg xmlns="http://www.w3.org/2000/svg" width="32" height="32" viewBox="0 0 32 32"><g style="line-height:125%" font-family="sans-serif" font-size="45.121" font-weight="400" letter-spacing="0" transform="translate(0 -1020.362)" word-spacing="0"><path d="m 21.56819,1025.3369 0.47369,0.049 0.24243,0.025 0.17716,0.057 0.16038,0.09 0.0485,0.043 0.36738,0.3184 0.60796,-0.7716 -0.36739,-0.3184 -0.082,-0.07 -0.0354,-0.031 -0.0411,-0.024 -0.24429,-0.1386 -0.0411,-0.024 -0.0448,-0.014 -0.26854,-0.088 -0.0466,-0.014 -0.0466,-0.01 -0.28906,-0.029 -0.47555,-0.051 z m -17.14198,0.051 0.47741,0 0.95482,0 0.47741,0 0,-1 -0.47741,0 -0.95482,0 -0.47741,0 z m 2.86446,0 0.47741,0 0.95482,0 0.47741,0 0,-1 -0.47741,0 -0.95482,0 -0.47741,0 z m 2.86446,0 0.47741,0 0.95481,0 0.47741,0 0,-1 -0.47741,0 -0.95481,0 -0.47741,0 z m 2.86445,0 0.47741,0 0.95482,0 0.47741,0 0,-1 -0.47741,0 -0.95482,0 -0.47741,0 z m 2.86446,0 0.47741,0 0.95482,0 0.47741,0 0,-1 -0.47741,0 -0.95482,0 -0.47741,0 z m 2.86446,0 0.47741,0 0.95481,0 0.47741,0 0,-1 -0.47741,0 -0.95481,0 -0.47741,0 z m -16.32703,-0.1952 -0.0298,0.039 -0.028,0.037 -0.0223,0.043 -0.13242,0.2539 -0.0223,0.043 -0.0131,0.047 -0.0839,0.2832 -0.0149,0.047 -0.004,0.051 -0.0298,0.3027 -0.002,0.025 0,0.023 0,0.062 0,0.5 0.95481,0 0,-0.5 0,-0.031 0.0205,-0.2324 0.0579,-0.1934 0.0858,-0.1641 0.30396,-0.3867 -0.73662,-0.6348 z m 20.62371,1.8417 0,0.3595 0.95482,0 0,-0.3595 0,-0.5 -0.95482,0 z m -21.00601,1.416 0,1 0,0.5 0.95481,0 0,-0.5 0,-1 0,-0.5 -0.95481,0 z m 0,3 0,1 0,0.5 0.95481,0 0,-0.5 0,-1 0,-0.5 -0.95481,0 z m 0,3 0,1 0,0.5 0.95481,0 0,-0.5 0,-1 0,-0.5 -0.95481,0 z m 0,3 0,1 0,0.5 0.95481,0 0,-0.5 0,-1 0,-0.5 -0.95481,0 z m 0,3 0,1 0,0.5 0.95481,0 0,-0.5 0,-1 0,-0.5 -0.95481,0 z m 0,3 0,1 0,0.5 0.95481,0 0,-0.5 0,-1 0,-0.5 -0.95481,0 z m 21.00601,1.9356 0,0.6484 0,0.5 0.95482,0 0,-0.5 0,-0.6484 z M 2,1046.0033 l 0.0466,0.4961 0.0243,0.2421 0.004,0.051 0.0149,0.047 0.0839,0.2832 0.0131,0.047 0.0223,0.043 0.13242,0.2539 0.0223,0.043 0.028,0.037 0.10443,0.1329 0.30398,0.3867 0.73662,-0.6367 -0.30397,-0.3847 -0.0728,-0.092 -0.0876,-0.1681 -0.0579,-0.1933 -0.0168,-0.1914 -0.0485,-0.4961 z m 20.51183,1.2773 -0.0503,0.029 -0.17717,0.057 -0.20513,0.022 -0.26854,0 -0.47741,0 0,1 0.47741,0 0.27973,0 0.0242,0 0.0243,0 0.28906,-0.029 0.0466,-0.01 0.0466,-0.016 0.26854,-0.086 0.0448,-0.016 0.0411,-0.023 0.0914,-0.051 0.4196,-0.2383 -0.45503,-0.8789 z m -18.36535,1.1074 0.47741,0 0.95482,0 0.47741,0 0,-1 -0.47741,0 -0.95482,0 -0.47741,0 z m 2.86446,0 0.47741,0 0.95481,0 0.47741,0 0,-1 -0.47741,0 -0.95481,0 -0.47741,0 z m 2.86445,0 0.47741,0 0.95482,0 0.47741,0 0,-1 -0.47741,0 -0.95482,0 -0.47741,0 z m 2.86446,0 0.47741,0 0.95482,0 0.47741,0 0,-1 -0.47741,0 -0.95482,0 -0.47741,0 z m 2.86446,0 0.47741,0 0.95481,0 0.47741,0 0,-1 -0.47741,0 -0.95481,0 -0.47741,0 z m 2.86445,0 0.47741,0 0.95482,0 0.47741,0 0,-1 -0.47741,0 -0.95482,0 -0.47741,0 z" color="#000" font-size="medium" letter-spacing="normal" overflow="visible" white-space="normal" word-spacing="normal" style="line-height:normal;text-indent:0;text-align:start;text-decoration-line:none;text-decoration-style:solid;text-decoration-color:#000;text-transform:none;block-progression:tb;isolation:auto;mix-blend-mode:normal"/><path style="isolation:auto;mix-blend-mode:normal" fill="#25b39e" d="m 4.85742,1026.3886 c -0.47486,0 -0.85742,0.446 -0.85742,1 l 0,18 c 0,0.5541 0.38256,1 0.85742,1 l 16.28516,0 c 0.47486,0 0.85742,-0.4459 0.85742,-1 l -14.42773,0 C 6.17357,1045.3886 5,1044.2171 5,1042.8184 l 0,-12.8575 c 0,-1.3986 1.17374,-2.5723 2.57227,-2.5723 l 14.42773,0 c 0,-0.554 -0.38256,-1 -0.85742,-1 z" color="#000" overflow="visible"/><path d="M 7.5722656,1028.3887 C 6.710314,1028.3887 6,1029.099 6,1029.9609 l 0,12.8555 c 0,0.8619 0.7103702,1.5723 1.5722656,1.5723 l 21.8554684,0 c 0.861896,0 1.572266,-0.7104 1.572266,-1.5723 l 0,-12.8555 c 0,-0.8619 -0.710314,-1.5722 -1.572266,-1.5722 l -21.8554684,0 z m 0,1 21.8554684,0 c 0.325209,0 0.572266,0.247 0.572266,0.5722 l 0,12.8555 c 0,0.3251 -0.247001,0.5723 -0.572266,0.5723 l -21.8554684,0 C 7.247001,1043.3887 7,1043.1415 7,1042.8164 l 0,-12.8555 c 0,-0.3252 0.2470572,-0.5722 0.5722656,-0.5722 z" color="#000" font-size="medium" overflow="visible" white-space="normal" style="line-height:125%;text-indent:0;text-align:start;text-decoration-line:none;text-decoration-style:solid;text-decoration-color:#000;text-transform:none;block-progression:tb;isolation:auto;mix-blend-mode:normal"/><path d="m 6,1030.3887 0,0.5 0,3.5 25,0 0,-4 -25,0 z m 1,1 23,0 0,2 -23,0 0,-2 z" color="#000" font-size="medium" overflow="visible" white-space="normal" style="line-height:125%;text-indent:0;text-align:start;text-decoration-line:none;text-decoration-style:solid;text-decoration-color:#000;text-transform:none;block-progression:tb;isolation:auto;mix-blend-mode:normal"/><path d="m 11,1041.3886 -3,0 0,1 3,0 0,-1 z"/><path fill="#f8b84e" stroke="#000" d="m 26.09998,1037.8886 a 2.0000086,2.0000086 0 0 1 -2,2 2.0000086,2.0000086 0 0 1 -2.00001,-2 2.0000086,2.0000086 0 0 1 2.00001,-2 2.0000086,2.0000086 0 0 1 2,2 z"/><path d="M15 1041.3886l-3 0 0 1 3 0 0-1zM19 1041.3886l-3 0 0 1 3 0 0-1zM23 1041.3886l-3 0 0 1 3 0 0-1z"/><path d="m 8,1036.3887 0,3 12,0 0,-3 -0.5,0 -11.5,0 z m 1,1 10,0 0,1 -10,0 0,-1 z" color="#000" font-size="medium" overflow="visible" white-space="normal" style="line-height:125%;text-indent:0;text-align:start;text-decoration-line:none;text-decoration-style:solid;text-decoration-color:#000;text-transform:none;block-progression:tb;isolation:auto;mix-blend-mode:normal"/><path fill="#25b39e" stroke="#000" d="m 28.50001,1037.8886 a 2.0000086,2.0000086 0 0 1 -2.00001,2 2.0000086,2.0000086 0 0 1 -2.00001,-2 2.0000086,2.0000086 0 0 1 2.00001,-2 2.0000086,2.0000086 0 0 1 2.00001,2 z"/></g></svg>